<mxfile host="Electron" agent="Mozilla/5.0 (Windows NT 10.0; Win64; x64) AppleWebKit/537.36 (KHTML, like Gecko) draw.io/27.0.9 Chrome/134.0.6998.205 Electron/35.4.0 Safari/537.36" version="27.0.9">
  <diagram name="Page-1" id="3orqYU6fAVE5CK-2h4ND">
    <mxGraphModel dx="4228" dy="1039" grid="1" gridSize="10" guides="1" tooltips="1" connect="1" arrows="1" fold="1" page="1" pageScale="1" pageWidth="850" pageHeight="1100" math="0" shadow="0">
      <root>
        <mxCell id="0" />
        <mxCell id="1" parent="0" />
        <mxCell id="iCKe8L9vZJJtGCBKQtnD-6" style="edgeStyle=orthogonalEdgeStyle;rounded=0;orthogonalLoop=1;jettySize=auto;html=1;exitX=1;exitY=0.5;exitDx=0;exitDy=0;entryX=0;entryY=0.5;entryDx=0;entryDy=0;" parent="1" source="iCKe8L9vZJJtGCBKQtnD-1" target="iCKe8L9vZJJtGCBKQtnD-2" edge="1">
          <mxGeometry relative="1" as="geometry" />
        </mxCell>
        <mxCell id="iCKe8L9vZJJtGCBKQtnD-7" style="edgeStyle=orthogonalEdgeStyle;rounded=0;orthogonalLoop=1;jettySize=auto;html=1;exitX=1;exitY=0.5;exitDx=0;exitDy=0;entryX=0;entryY=0.5;entryDx=0;entryDy=0;" parent="1" source="iCKe8L9vZJJtGCBKQtnD-1" target="iCKe8L9vZJJtGCBKQtnD-3" edge="1">
          <mxGeometry relative="1" as="geometry" />
        </mxCell>
        <mxCell id="iCKe8L9vZJJtGCBKQtnD-8" style="edgeStyle=orthogonalEdgeStyle;rounded=0;orthogonalLoop=1;jettySize=auto;html=1;exitX=1;exitY=0.5;exitDx=0;exitDy=0;entryX=0;entryY=0.5;entryDx=0;entryDy=0;" parent="1" source="iCKe8L9vZJJtGCBKQtnD-1" target="iCKe8L9vZJJtGCBKQtnD-4" edge="1">
          <mxGeometry relative="1" as="geometry" />
        </mxCell>
        <mxCell id="iCKe8L9vZJJtGCBKQtnD-9" style="edgeStyle=orthogonalEdgeStyle;rounded=0;orthogonalLoop=1;jettySize=auto;html=1;exitX=1;exitY=0.5;exitDx=0;exitDy=0;entryX=0;entryY=0.5;entryDx=0;entryDy=0;" parent="1" source="iCKe8L9vZJJtGCBKQtnD-1" target="iCKe8L9vZJJtGCBKQtnD-5" edge="1">
          <mxGeometry relative="1" as="geometry" />
        </mxCell>
        <mxCell id="iCKe8L9vZJJtGCBKQtnD-1" value="HomeScreen" style="whiteSpace=wrap;html=1;" parent="1" vertex="1">
          <mxGeometry x="145" y="250" width="120" height="60" as="geometry" />
        </mxCell>
        <mxCell id="iCKe8L9vZJJtGCBKQtnD-2" value="UserSettingsScreen" style="whiteSpace=wrap;html=1;" parent="1" vertex="1">
          <mxGeometry x="415" y="90" width="120" height="60" as="geometry" />
        </mxCell>
        <mxCell id="iCKe8L9vZJJtGCBKQtnD-3" value="PointingReport" style="whiteSpace=wrap;html=1;" parent="1" vertex="1">
          <mxGeometry x="415" y="200" width="120" height="60" as="geometry" />
        </mxCell>
        <mxCell id="iCKe8L9vZJJtGCBKQtnD-4" value="Zarovnat submodul" style="whiteSpace=wrap;html=1;" parent="1" vertex="1">
          <mxGeometry x="415" y="310" width="120" height="60" as="geometry" />
        </mxCell>
        <mxCell id="iCKe8L9vZJJtGCBKQtnD-5" value="Merge&amp;nbsp;" style="whiteSpace=wrap;html=1;" parent="1" vertex="1">
          <mxGeometry x="415" y="410" width="120" height="60" as="geometry" />
        </mxCell>
        <mxCell id="9OnaElkXCphRrL8_LYWj-2" value="Pointing report" style="text;html=1;align=center;verticalAlign=middle;whiteSpace=wrap;rounded=0;fontSize=50;" vertex="1" parent="1">
          <mxGeometry x="-1520" y="120" width="370" height="60" as="geometry" />
        </mxCell>
        <mxCell id="9OnaElkXCphRrL8_LYWj-3" value="Zarovnanie submodulu" style="text;html=1;align=center;verticalAlign=middle;whiteSpace=wrap;rounded=0;fontSize=50;" vertex="1" parent="1">
          <mxGeometry x="-2360" y="140" width="370" height="60" as="geometry" />
        </mxCell>
        <mxCell id="9OnaElkXCphRrL8_LYWj-4" value="Settings screen" style="text;html=1;align=center;verticalAlign=middle;whiteSpace=wrap;rounded=0;fontSize=50;" vertex="1" parent="1">
          <mxGeometry x="-640" y="140" width="370" height="60" as="geometry" />
        </mxCell>
        <mxCell id="9OnaElkXCphRrL8_LYWj-5" value="" style="rounded=0;whiteSpace=wrap;html=1;" vertex="1" parent="1">
          <mxGeometry x="-860" y="80" width="10" height="920" as="geometry" />
        </mxCell>
        <mxCell id="9OnaElkXCphRrL8_LYWj-6" value="" style="rounded=0;whiteSpace=wrap;html=1;" vertex="1" parent="1">
          <mxGeometry x="-1710" y="100" width="10" height="920" as="geometry" />
        </mxCell>
        <mxCell id="9OnaElkXCphRrL8_LYWj-7" value="" style="rounded=0;whiteSpace=wrap;html=1;" vertex="1" parent="1">
          <mxGeometry y="60" width="10" height="920" as="geometry" />
        </mxCell>
        <mxCell id="9OnaElkXCphRrL8_LYWj-8" value="I" style="whiteSpace=wrap;html=1;fillColor=#dae8fc;strokeColor=#6c8ebf;" vertex="1" parent="1">
          <mxGeometry x="-1620" y="220" width="90" height="40" as="geometry" />
        </mxCell>
      </root>
    </mxGraphModel>
  </diagram>
</mxfile>
